<svg width="21" height="21" viewBox="0 0 21 21" fill="#5E6278" xmlns="http://www.w3.org/2000/svg">
<path d="M10.5 20.5C9.13333 20.5 7.84167 20.2375 6.625 19.7125C5.40833 19.1875 4.34583 18.4708 3.4375 17.5625C2.52917 16.6542 1.8125 15.5917 1.2875 14.375C0.7625 13.1583 0.5 11.8667 0.5 10.5C0.5 9.11667 0.7625 7.82083 1.2875 6.6125C1.8125 5.40417 2.52917 4.34583 3.4375 3.4375C4.34583 2.52917 5.40833 1.8125 6.625 1.2875C7.84167 0.7625 9.13333 0.5 10.5 0.5C11.8833 0.5 13.1792 0.7625 14.3875 1.2875C15.5958 1.8125 16.6542 2.52917 17.5625 3.4375C18.4708 4.34583 19.1875 5.40417 19.7125 6.6125C20.2375 7.82083 20.5 9.11667 20.5 10.5C20.5 11.8667 20.2375 13.1583 19.7125 14.375C19.1875 15.5917 18.4708 16.6542 17.5625 17.5625C16.6542 18.4708 15.5958 19.1875 14.3875 19.7125C13.1792 20.2375 11.8833 20.5 10.5 20.5ZM10.5 14.5C11.5 14.5 12.475 14.6458 13.425 14.9375C14.375 15.2292 15.2667 15.65 16.1 16.2C16.8667 15.4333 17.4583 14.5625 17.875 13.5875C18.2917 12.6125 18.5 11.5833 18.5 10.5C18.5 8.26667 17.725 6.375 16.175 4.825C14.625 3.275 12.7333 2.5 10.5 2.5C8.26667 2.5 6.375 3.275 4.825 4.825C3.275 6.375 2.5 8.26667 2.5 10.5C2.5 11.5833 2.70417 12.6167 3.1125 13.6C3.52083 14.5833 4.11667 15.45 4.9 16.2C5.73333 15.65 6.625 15.2292 7.575 14.9375C8.525 14.6458 9.5 14.5 10.5 14.5ZM10.5 16.5C9.81667 16.5 9.15 16.5833 8.5 16.75C7.85 16.9167 7.23333 17.1667 6.65 17.5C7.23333 17.8333 7.85 18.0833 8.5 18.25C9.15 18.4167 9.81667 18.5 10.5 18.5C11.1833 18.5 11.85 18.4167 12.5 18.25C13.15 18.0833 13.7667 17.8333 14.35 17.5C13.7667 17.1667 13.15 16.9167 12.5 16.75C11.85 16.5833 11.1833 16.5 10.5 16.5ZM5.5 9.5C5.78333 9.5 6.02083 9.40417 6.2125 9.2125C6.40417 9.02083 6.5 8.78333 6.5 8.5C6.5 8.21667 6.40417 7.97917 6.2125 7.7875C6.02083 7.59583 5.78333 7.5 5.5 7.5C5.21667 7.5 4.97917 7.59583 4.7875 7.7875C4.59583 7.97917 4.5 8.21667 4.5 8.5C4.5 8.78333 4.59583 9.02083 4.7875 9.2125C4.97917 9.40417 5.21667 9.5 5.5 9.5ZM8.5 6.5C8.78333 6.5 9.02083 6.40417 9.2125 6.2125C9.40417 6.02083 9.5 5.78333 9.5 5.5C9.5 5.21667 9.40417 4.97917 9.2125 4.7875C9.02083 4.59583 8.78333 4.5 8.5 4.5C8.21667 4.5 7.97917 4.59583 7.7875 4.7875C7.59583 4.97917 7.5 5.21667 7.5 5.5C7.5 5.78333 7.59583 6.02083 7.7875 6.2125C7.97917 6.40417 8.21667 6.5 8.5 6.5ZM15.5 9.5C15.7833 9.5 16.0208 9.40417 16.2125 9.2125C16.4042 9.02083 16.5 8.78333 16.5 8.5C16.5 8.21667 16.4042 7.97917 16.2125 7.7875C16.0208 7.59583 15.7833 7.5 15.5 7.5C15.2167 7.5 14.9792 7.59583 14.7875 7.7875C14.5958 7.97917 14.5 8.21667 14.5 8.5C14.5 8.78333 14.5958 9.02083 14.7875 9.2125C14.9792 9.40417 15.2167 9.5 15.5 9.5ZM10.5 12.5C11.05 12.5 11.5208 12.3042 11.9125 11.9125C12.3042 11.5208 12.5 11.05 12.5 10.5C12.5 10.2833 12.4667 10.0708 12.4 9.8625C12.3333 9.65417 12.2333 9.46667 12.1 9.3L13.45 5.9C13.5667 5.63333 13.5708 5.37083 13.4625 5.1125C13.3542 4.85417 13.1667 4.66667 12.9 4.55C12.65 4.43333 12.3958 4.42917 12.1375 4.5375C11.8792 4.64583 11.7 4.83333 11.6 5.1L10.25 8.5C9.75 8.58333 9.33333 8.8125 9 9.1875C8.66667 9.5625 8.5 10 8.5 10.5C8.5 11.05 8.69583 11.5208 9.0875 11.9125C9.47917 12.3042 9.95 12.5 10.5 12.5Z" fill="#5E6278"/>
</svg>
