<svg width="17" height="21" viewBox="0 0 17 21" fill="none" xmlns="http://www.w3.org/2000/svg">
<path d="M5.5 16.5H11.5C11.7833 16.5 12.0208 16.4042 12.2125 16.2125C12.4042 16.0208 12.5 15.7833 12.5 15.5C12.5 15.2167 12.4042 14.9792 12.2125 14.7875C12.0208 14.5958 11.7833 14.5 11.5 14.5H5.5C5.21667 14.5 4.97917 14.5958 4.7875 14.7875C4.59583 14.9792 4.5 15.2167 4.5 15.5C4.5 15.7833 4.59583 16.0208 4.7875 16.2125C4.97917 16.4042 5.21667 16.5 5.5 16.5ZM5.5 12.5H11.5C11.7833 12.5 12.0208 12.4042 12.2125 12.2125C12.4042 12.0208 12.5 11.7833 12.5 11.5C12.5 11.2167 12.4042 10.9792 12.2125 10.7875C12.0208 10.5958 11.7833 10.5 11.5 10.5H5.5C5.21667 10.5 4.97917 10.5958 4.7875 10.7875C4.59583 10.9792 4.5 11.2167 4.5 11.5C4.5 11.7833 4.59583 12.0208 4.7875 12.2125C4.97917 12.4042 5.21667 12.5 5.5 12.5ZM2.5 20.5C1.95 20.5 1.47917 20.3042 1.0875 19.9125C0.695833 19.5208 0.5 19.05 0.5 18.5V2.5C0.5 1.95 0.695833 1.47917 1.0875 1.0875C1.47917 0.695833 1.95 0.5 2.5 0.5H9.675C9.94167 0.5 10.1958 0.55 10.4375 0.65C10.6792 0.75 10.8917 0.891667 11.075 1.075L15.925 5.925C16.1083 6.10833 16.25 6.32083 16.35 6.5625C16.45 6.80417 16.5 7.05833 16.5 7.325V18.5C16.5 19.05 16.3042 19.5208 15.9125 19.9125C15.5208 20.3042 15.05 20.5 14.5 20.5H2.5ZM9.5 6.5V2.5H2.5V18.5H14.5V7.5H10.5C10.2167 7.5 9.97917 7.40417 9.7875 7.2125C9.59583 7.02083 9.5 6.78333 9.5 6.5Z" fill="#181C32"/>
</svg>
