<svg width="25" height="25" viewBox="0 0 25 25" fill="#5E6278" xmlns="http://www.w3.org/2000/svg">
<mask id="mask0_50_10389" style="mask-type:alpha" maskUnits="userSpaceOnUse" x="0" y="0" width="25" height="25">
<rect x="0.5" y="0.5" width="24" height="24" fill="#5E6278"/>
</mask>
<g mask="url(#mask0_50_10389)">
<path d="M4.5 21.5C3.95 21.5 3.47917 21.3042 3.0875 20.9125C2.69583 20.5208 2.5 20.05 2.5 19.5V8.5C2.5 7.95 2.69583 7.47917 3.0875 7.0875C3.47917 6.69583 3.95 6.5 4.5 6.5H8.5V4.5C8.5 3.95 8.69583 3.47917 9.0875 3.0875C9.47917 2.69583 9.95 2.5 10.5 2.5H14.5C15.05 2.5 15.5208 2.69583 15.9125 3.0875C16.3042 3.47917 16.5 3.95 16.5 4.5V6.5H20.5C21.05 6.5 21.5208 6.69583 21.9125 7.0875C22.3042 7.47917 22.5 7.95 22.5 8.5V19.5C22.5 20.05 22.3042 20.5208 21.9125 20.9125C21.5208 21.3042 21.05 21.5 20.5 21.5H4.5ZM4.5 19.5H20.5V8.5H4.5V19.5ZM10.5 6.5H14.5V4.5H10.5V6.5Z" fill="#5E6278"/>
</g>
</svg>
