<svg width="25" height="25" viewBox="0 0 25 25" fill="none" xmlns="http://www.w3.org/2000/svg">
<mask id="mask0_50_10404" style="mask-type:alpha" maskUnits="userSpaceOnUse" x="0" y="0" width="25" height="25">
<rect x="0.5" y="0.5" width="24" height="24" fill="#D9D9D9"/>
</mask>
<g mask="url(#mask0_50_10404)">
<path d="M9.5 18.5H15.5C15.7833 18.5 16.0208 18.4042 16.2125 18.2125C16.4042 18.0208 16.5 17.7833 16.5 17.5C16.5 17.2167 16.4042 16.9792 16.2125 16.7875C16.0208 16.5958 15.7833 16.5 15.5 16.5H9.5C9.21667 16.5 8.97917 16.5958 8.7875 16.7875C8.59583 16.9792 8.5 17.2167 8.5 17.5C8.5 17.7833 8.59583 18.0208 8.7875 18.2125C8.97917 18.4042 9.21667 18.5 9.5 18.5ZM9.5 14.5H15.5C15.7833 14.5 16.0208 14.4042 16.2125 14.2125C16.4042 14.0208 16.5 13.7833 16.5 13.5C16.5 13.2167 16.4042 12.9792 16.2125 12.7875C16.0208 12.5958 15.7833 12.5 15.5 12.5H9.5C9.21667 12.5 8.97917 12.5958 8.7875 12.7875C8.59583 12.9792 8.5 13.2167 8.5 13.5C8.5 13.7833 8.59583 14.0208 8.7875 14.2125C8.97917 14.4042 9.21667 14.5 9.5 14.5ZM6.5 22.5C5.95 22.5 5.47917 22.3042 5.0875 21.9125C4.69583 21.5208 4.5 21.05 4.5 20.5V4.5C4.5 3.95 4.69583 3.47917 5.0875 3.0875C5.47917 2.69583 5.95 2.5 6.5 2.5H13.675C13.9417 2.5 14.1958 2.55 14.4375 2.65C14.6792 2.75 14.8917 2.89167 15.075 3.075L19.925 7.925C20.1083 8.10833 20.25 8.32083 20.35 8.5625C20.45 8.80417 20.5 9.05833 20.5 9.325V20.5C20.5 21.05 20.3042 21.5208 19.9125 21.9125C19.5208 22.3042 19.05 22.5 18.5 22.5H6.5ZM13.5 8.5V4.5H6.5V20.5H18.5V9.5H14.5C14.2167 9.5 13.9792 9.40417 13.7875 9.2125C13.5958 9.02083 13.5 8.78333 13.5 8.5Z" fill="#181C32"/>
</g>
</svg>
