<svg width="21" height="21" viewBox="0 0 21 21" fill="#5E6278" xmlns="http://www.w3.org/2000/svg">
<path d="M7.7502 20.5L7.3502 17.3C7.13353 17.2167 6.92936 17.1167 6.7377 17C6.54603 16.8833 6.35853 16.7583 6.1752 16.625L3.2002 17.875L0.450195 13.125L3.0252 11.175C3.00853 11.0583 3.0002 10.9458 3.0002 10.8375V10.1625C3.0002 10.0542 3.00853 9.94167 3.0252 9.825L0.450195 7.875L3.2002 3.125L6.1752 4.375C6.35853 4.24167 6.5502 4.11667 6.7502 4C6.9502 3.88333 7.1502 3.78333 7.3502 3.7L7.7502 0.5H13.2502L13.6502 3.7C13.8669 3.78333 14.071 3.88333 14.2627 4C14.4544 4.11667 14.6419 4.24167 14.8252 4.375L17.8002 3.125L20.5502 7.875L17.9752 9.825C17.9919 9.94167 18.0002 10.0542 18.0002 10.1625V10.8375C18.0002 10.9458 17.9835 11.0583 17.9502 11.175L20.5252 13.125L17.7752 17.875L14.8252 16.625C14.6419 16.7583 14.4502 16.8833 14.2502 17C14.0502 17.1167 13.8502 17.2167 13.6502 17.3L13.2502 20.5H7.7502ZM10.5502 14C11.5169 14 12.3419 13.6583 13.0252 12.975C13.7085 12.2917 14.0502 11.4667 14.0502 10.5C14.0502 9.53333 13.7085 8.70833 13.0252 8.025C12.3419 7.34167 11.5169 7 10.5502 7C9.56686 7 8.7377 7.34167 8.0627 8.025C7.3877 8.70833 7.0502 9.53333 7.0502 10.5C7.0502 11.4667 7.3877 12.2917 8.0627 12.975C8.7377 13.6583 9.56686 14 10.5502 14ZM10.5502 12C10.1335 12 9.77936 11.8542 9.4877 11.5625C9.19603 11.2708 9.0502 10.9167 9.0502 10.5C9.0502 10.0833 9.19603 9.72917 9.4877 9.4375C9.77936 9.14583 10.1335 9 10.5502 9C10.9669 9 11.321 9.14583 11.6127 9.4375C11.9044 9.72917 12.0502 10.0833 12.0502 10.5C12.0502 10.9167 11.9044 11.2708 11.6127 11.5625C11.321 11.8542 10.9669 12 10.5502 12ZM9.5002 18.5H11.4752L11.8252 15.85C12.3419 15.7167 12.821 15.5208 13.2627 15.2625C13.7044 15.0042 14.1085 14.6917 14.4752 14.325L16.9502 15.35L17.9252 13.65L15.7752 12.025C15.8585 11.7917 15.9169 11.5458 15.9502 11.2875C15.9835 11.0292 16.0002 10.7667 16.0002 10.5C16.0002 10.2333 15.9835 9.97083 15.9502 9.7125C15.9169 9.45417 15.8585 9.20833 15.7752 8.975L17.9252 7.35L16.9502 5.65L14.4752 6.7C14.1085 6.31667 13.7044 5.99583 13.2627 5.7375C12.821 5.47917 12.3419 5.28333 11.8252 5.15L11.5002 2.5H9.5252L9.1752 5.15C8.65853 5.28333 8.17936 5.47917 7.7377 5.7375C7.29603 5.99583 6.89186 6.30833 6.5252 6.675L4.0502 5.65L3.0752 7.35L5.2252 8.95C5.14186 9.2 5.08353 9.45 5.0502 9.7C5.01686 9.95 5.0002 10.2167 5.0002 10.5C5.0002 10.7667 5.01686 11.025 5.0502 11.275C5.08353 11.525 5.14186 11.775 5.2252 12.025L3.0752 13.65L4.0502 15.35L6.5252 14.3C6.89186 14.6833 7.29603 15.0042 7.7377 15.2625C8.17936 15.5208 8.65853 15.7167 9.1752 15.85L9.5002 18.5Z" fill="#5E6278"/>
</svg>
