<svg xmlns="http://www.w3.org/2000/svg" viewBox="0 0 24 30" fill="none" x="0px" y="0px"><path fill-rule="evenodd" clip-rule="evenodd" d="M7.25 4.5C7.25 4.08579 7.58579 3.75 8 3.75H16C16.4142 3.75 16.75 4.08579 16.75 4.5V7.5C16.75 7.91421 16.4142 8.25 16 8.25H8C7.58579 8.25 7.25 7.91421 7.25 7.5V4.5ZM8.75 5.25V6.75H15.25V5.25H8.75Z" fill="grey"/><path fill-rule="evenodd" clip-rule="evenodd" d="M8 9.75C7.58579 9.75 7.25 10.0858 7.25 10.5V13.5C7.25 13.9142 7.58579 14.25 8 14.25H16C16.4142 14.25 16.75 13.9142 16.75 13.5V10.5C16.75 10.0858 16.4142 9.75 16 9.75H8Z" fill="grey"/><path fill-rule="evenodd" clip-rule="evenodd" d="M7.25 16.5C7.25 16.0858 7.58579 15.75 8 15.75H16C16.4142 15.75 16.75 16.0858 16.75 16.5V19.5C16.75 19.9142 16.4142 20.25 16 20.25H8C7.58579 20.25 7.25 19.9142 7.25 19.5V16.5ZM8.75 17.25V18.75H15.25V17.25H8.75Z" fill="grey"/><path fill-rule="evenodd" clip-rule="evenodd" d="M1.75 6C1.75 5.58579 2.08579 5.25 2.5 5.25H6C6.41421 5.25 6.75 5.58579 6.75 6C6.75 6.41421 6.41421 6.75 6 6.75H2.5C2.08579 6.75 1.75 6.41421 1.75 6Z" fill="grey"/><path fill-rule="evenodd" clip-rule="evenodd" d="M3.96967 3.96967C4.26256 3.67678 4.73744 3.67678 5.03033 3.96967L6.53033 5.46967C6.82322 5.76256 6.82322 6.23744 6.53033 6.53033C6.23744 6.82322 5.76256 6.82322 5.46967 6.53033L3.96967 5.03033C3.67678 4.73744 3.67678 4.26256 3.96967 3.96967Z" fill="grey"/><path fill-rule="evenodd" clip-rule="evenodd" d="M6.53033 5.46967C6.82322 5.76256 6.82322 6.23744 6.53033 6.53033L5.03033 8.03033C4.73744 8.32322 4.26256 8.32322 3.96967 8.03033C3.67678 7.73744 3.67678 7.26256 3.96967 6.96967L5.46967 5.46967C5.76256 5.17678 6.23744 5.17678 6.53033 5.46967Z" fill="grey"/><path fill-rule="evenodd" clip-rule="evenodd" d="M17.8292 5.66459C18.0144 5.2941 18.4649 5.14393 18.8354 5.32918L18.5 6C18.8354 5.32918 18.8351 5.32904 18.8354 5.32918L18.8365 5.32975L18.8379 5.33042L18.8411 5.33204L18.8497 5.33646L18.8754 5.34995C18.8961 5.36101 18.924 5.37625 18.958 5.39569C19.0259 5.4345 19.1189 5.49037 19.2285 5.56346C19.4465 5.70879 19.7374 5.92676 20.0303 6.21967C20.6121 6.80141 21.25 7.73093 21.25 9C21.25 10.2691 20.6121 11.1986 20.0303 11.7803C19.7374 12.0732 19.4465 12.2912 19.2285 12.4365C19.1189 12.5096 19.0259 12.5655 18.958 12.6043C18.924 12.6237 18.8961 12.639 18.8754 12.65L18.8497 12.6635L18.8411 12.6679L18.8379 12.6696L18.8365 12.6702C18.8363 12.6704 18.8354 12.6708 18.5 12L18.8354 12.6708C18.4649 12.8561 18.0144 12.7059 17.8292 12.3354C17.6444 11.9659 17.7933 11.5167 18.1618 11.3306M18.1618 11.3306L18.1695 11.3265C18.1781 11.322 18.1931 11.3138 18.2138 11.3019C18.2553 11.2783 18.3186 11.2404 18.3965 11.1885C18.5535 11.0838 18.7626 10.9268 18.9697 10.7197C19.3879 10.3014 19.75 9.73093 19.75 9C19.75 8.26906 19.3879 7.69858 18.9697 7.28033C18.7626 7.07323 18.5535 6.91621 18.3965 6.81153C18.3186 6.75962 18.2553 6.72174 18.2138 6.69805C18.1931 6.68624 18.1781 6.67804 18.1695 6.67348L18.1618 6.6694C17.7933 6.48329 17.6444 6.03413 17.8292 5.66459" fill="grey"/><path fill-rule="evenodd" clip-rule="evenodd" d="M18.5 9.75C18.9142 9.75 19.25 10.0858 19.25 10.5V12C19.25 12.4142 18.9142 12.75 18.5 12.75C18.0858 12.75 17.75 12.4142 17.75 12V10.5C17.75 10.0858 18.0858 9.75 18.5 9.75Z" fill="grey"/><path fill-rule="evenodd" clip-rule="evenodd" d="M17.7885 11.7628C17.9195 11.3699 18.3442 11.1575 18.7372 11.2885L20.2372 11.7885C20.6301 11.9195 20.8425 12.3442 20.7115 12.7372C20.5805 13.1301 20.1558 13.3425 19.7628 13.2115L18.2628 12.7115C17.8699 12.5805 17.6575 12.1558 17.7885 11.7628Z" fill="grey"/><path fill-rule="evenodd" clip-rule="evenodd" d="M6.17084 11.6646C5.9856 11.2941 5.53509 11.1439 5.16461 11.3292L5.50002 12C5.16461 11.3292 5.16489 11.329 5.16461 11.3292L5.16347 11.3297L5.16214 11.3304L5.15892 11.332L5.1503 11.3365L5.12462 11.35C5.10387 11.361 5.07599 11.3763 5.04198 11.3957C4.97406 11.4345 4.88112 11.4904 4.77149 11.5635C4.5535 11.7088 4.2626 11.9268 3.96969 12.2197C3.38794 12.8014 2.75002 13.7309 2.75002 15C2.75002 16.2691 3.38794 17.1986 3.96969 17.7803C4.2626 18.0732 4.5535 18.2912 4.77149 18.4365C4.88112 18.5096 4.97406 18.5655 5.04198 18.6043C5.07599 18.6237 5.10387 18.639 5.12462 18.65L5.1503 18.6635L5.15892 18.6679L5.16214 18.6696L5.16347 18.6702C5.16374 18.6704 5.16461 18.6708 5.50002 18L5.16461 18.6708C5.53509 18.8561 5.9856 18.7059 6.17084 18.3354C6.35561 17.9659 6.20667 17.5167 5.83824 17.3306M5.83824 17.3306L5.8305 17.3265C5.82194 17.322 5.80686 17.3138 5.78619 17.3019C5.74473 17.2783 5.68142 17.2404 5.60354 17.1885C5.44653 17.0838 5.23744 16.9268 5.03035 16.7197C4.6121 16.3014 4.25002 15.7309 4.25002 15C4.25002 14.2691 4.6121 13.6986 5.03035 13.2803C5.23744 13.0732 5.44653 12.9162 5.60354 12.8115C5.68142 12.7596 5.74473 12.7217 5.78619 12.6981C5.80686 12.6862 5.82194 12.678 5.8305 12.6735L5.83824 12.6694C6.20667 12.4833 6.35561 12.0341 6.17084 11.6646" fill="grey"/><path fill-rule="evenodd" clip-rule="evenodd" d="M5.5 15.75C5.08579 15.75 4.75 16.0858 4.75 16.5V18C4.75 18.4142 5.08579 18.75 5.5 18.75C5.91421 18.75 6.25 18.4142 6.25 18V16.5C6.25 16.0858 5.91421 15.75 5.5 15.75Z" fill="grey"/><path fill-rule="evenodd" clip-rule="evenodd" d="M6.21149 17.7628C6.08051 17.3699 5.65577 17.1575 5.26281 17.2885L3.76281 17.7885C3.36985 17.9195 3.15748 18.3442 3.28847 18.7372C3.41945 19.1301 3.84419 19.3425 4.23715 19.2115L5.73715 18.7115C6.13011 18.5805 6.34248 18.1558 6.21149 17.7628Z" fill="grey"/><text x="0" y="39" fill="#000000" font-size="5px" font-weight="bold" font-family="'Helvetica Neue', Helvetica, Arial-Unicode, Arial, Sans-serif">Created by Annisa Aulia Rahman</text><text x="0" y="44" fill="#000000" font-size="5px" font-weight="bold" font-family="'Helvetica Neue', Helvetica, Arial-Unicode, Arial, Sans-serif">from the Noun Project</text></svg>