<svg width="210" height="38" viewBox="0 0 210 38" fill="none" xmlns="http://www.w3.org/2000/svg">
<path d="M0.72 29V0.999998H18.8V5.12H5.84V12.96H16.32V17H5.84V29H0.72ZM27.7916 29.48C26.0849 29.48 24.6849 29.2133 23.5916 28.68C22.4982 28.12 21.6849 27.3867 21.1516 26.48C20.6182 25.5733 20.3516 24.5733 20.3516 23.48C20.3516 21.64 21.0716 20.1467 22.5116 19C23.9516 17.8533 26.1116 17.28 28.9916 17.28H34.0316V16.8C34.0316 15.44 33.6449 14.44 32.8716 13.8C32.0982 13.16 31.1382 12.84 29.9916 12.84C28.9516 12.84 28.0449 13.0933 27.2716 13.6C26.4982 14.08 26.0182 14.8 25.8316 15.76H20.8316C20.9649 14.32 21.4449 13.0667 22.2716 12C23.1249 10.9333 24.2182 10.12 25.5516 9.56C26.8849 8.97333 28.3782 8.68 30.0316 8.68C32.8582 8.68 35.0849 9.38667 36.7116 10.8C38.3382 12.2133 39.1516 14.2133 39.1516 16.8V29H34.7916L34.3116 25.8C33.7249 26.8667 32.8982 27.7467 31.8316 28.44C30.7916 29.1333 29.4449 29.48 27.7916 29.48ZM28.9516 25.48C30.4182 25.48 31.5516 25 32.3516 24.04C33.1782 23.08 33.6982 21.8933 33.9116 20.48H29.5516C28.1916 20.48 27.2182 20.7333 26.6316 21.24C26.0449 21.72 25.7516 22.32 25.7516 23.04C25.7516 23.8133 26.0449 24.4133 26.6316 24.84C27.2182 25.2667 27.9916 25.48 28.9516 25.48ZM53.7575 29.48C51.7308 29.48 49.9442 29.04 48.3975 28.16C46.8508 27.28 45.6242 26.0533 44.7175 24.48C43.8375 22.9067 43.3975 21.1067 43.3975 19.08C43.3975 17.0533 43.8375 15.2533 44.7175 13.68C45.6242 12.1067 46.8508 10.88 48.3975 10C49.9442 9.12 51.7308 8.68 53.7575 8.68C56.2908 8.68 58.4242 9.34667 60.1575 10.68C61.8908 11.9867 62.9975 13.8 63.4775 16.12H58.0775C57.8108 15.16 57.2775 14.4133 56.4775 13.88C55.7042 13.32 54.7842 13.04 53.7175 13.04C52.3042 13.04 51.1042 13.5733 50.1175 14.64C49.1308 15.7067 48.6375 17.1867 48.6375 19.08C48.6375 20.9733 49.1308 22.4533 50.1175 23.52C51.1042 24.5867 52.3042 25.12 53.7175 25.12C54.7842 25.12 55.7042 24.8533 56.4775 24.32C57.2775 23.7867 57.8108 23.0267 58.0775 22.04H63.4775C62.9975 24.28 61.8908 26.08 60.1575 27.44C58.4242 28.8 56.2908 29.48 53.7575 29.48ZM76.5884 29C74.5084 29 72.8418 28.4933 71.5884 27.48C70.3351 26.4667 69.7084 24.6667 69.7084 22.08V13.44H66.3084V9.16H69.7084L70.3084 3.84H74.8284V9.16H80.1884V13.44H74.8284V22.12C74.8284 23.08 75.0284 23.7467 75.4284 24.12C75.8551 24.4667 76.5751 24.64 77.5884 24.64H80.0684V29H76.5884ZM84.5844 29V9.16H89.1444L89.6244 12.88C90.3444 11.6 91.3177 10.5867 92.5444 9.84C93.7977 9.06667 95.2644 8.68 96.9444 8.68V14.08H95.5044C94.3844 14.08 93.3844 14.2533 92.5044 14.6C91.6244 14.9467 90.931 15.5467 90.4244 16.4C89.9444 17.2533 89.7044 18.44 89.7044 19.96V29H84.5844ZM102.924 37.8L107.524 27.68H106.324L98.6038 9.16H104.164L109.724 23.12L115.524 9.16H120.964L108.364 37.8H102.924ZM124.431 29V0.999998H142.511V5.12H129.551V12.96H140.031V17H129.551V29H124.431ZM146.342 29V0.199999H151.462V29H146.342ZM166.214 29.48C164.294 29.48 162.56 29.04 161.014 28.16C159.494 27.28 158.28 26.0667 157.374 24.52C156.494 22.9467 156.054 21.1333 156.054 19.08C156.054 17.0267 156.507 15.2267 157.414 13.68C158.32 12.1067 159.534 10.88 161.054 10C162.6 9.12 164.334 8.68 166.254 8.68C168.147 8.68 169.854 9.12 171.374 10C172.92 10.88 174.134 12.1067 175.014 13.68C175.92 15.2267 176.374 17.0267 176.374 19.08C176.374 21.1333 175.92 22.9467 175.014 24.52C174.134 26.0667 172.92 27.28 171.374 28.16C169.827 29.04 168.107 29.48 166.214 29.48ZM166.214 25.04C167.547 25.04 168.707 24.5467 169.694 23.56C170.68 22.5467 171.174 21.0533 171.174 19.08C171.174 17.1067 170.68 15.6267 169.694 14.64C168.707 13.6267 167.56 13.12 166.254 13.12C164.894 13.12 163.72 13.6267 162.734 14.64C161.774 15.6267 161.294 17.1067 161.294 19.08C161.294 21.0533 161.774 22.5467 162.734 23.56C163.72 24.5467 164.88 25.04 166.214 25.04ZM184.128 29L178.328 9.16H183.408L186.848 23.44L190.848 9.16H196.528L200.528 23.44L204.008 9.16H209.088L203.248 29H197.928L193.688 14.16L189.448 29H184.128Z" fill="#2884EF"/>
</svg>
