<svg width="16" height="16" viewBox="0 0 16 16" fill="none" xmlns="http://www.w3.org/2000/svg">
<g clip-path="url(#clip0_9_3212)">
<path d="M13.1536 15.1597H10.8869C10.3565 15.1597 9.84776 14.949 9.47269 14.5739C9.09761 14.1989 8.8869 13.6902 8.8869 13.1597V10.1797C8.88634 10.0521 8.8576 9.92619 8.80273 9.81096C8.74787 9.69574 8.66823 9.59405 8.56952 9.51317C8.4708 9.43229 8.35544 9.3742 8.23168 9.34307C8.10792 9.31193 7.9788 9.30852 7.85357 9.33306C7.64559 9.37829 7.46016 9.49525 7.32974 9.66345C7.19933 9.83165 7.13224 10.0404 7.14023 10.2531V13.1331C7.14023 13.6635 6.92952 14.1722 6.55445 14.5473C6.17937 14.9223 5.67067 15.1331 5.14023 15.1331H2.8469C2.31647 15.1331 1.80776 14.9223 1.43269 14.5473C1.05761 14.1722 0.8469 13.6635 0.8469 13.1331V7.55306C0.841329 7.06231 0.941447 6.5761 1.14045 6.12747C1.33946 5.67885 1.63269 5.27831 2.00023 4.95306L5.84023 1.61973C6.44307 1.10684 7.20874 0.825195 8.00023 0.825195C8.79173 0.825195 9.5574 1.10684 10.1602 1.61973L13.9936 4.95306C14.3656 5.27505 14.6642 5.67325 14.8689 6.12068C15.0737 6.56812 15.1798 7.05434 15.1802 7.54639V13.1331C15.1838 13.4002 15.1338 13.6653 15.0333 13.9129C14.9327 14.1604 14.7835 14.3852 14.5946 14.5741C14.4057 14.763 14.1809 14.9122 13.9334 15.0128C13.6859 15.1133 13.4207 15.1633 13.1536 15.1597ZM8.00023 8.32639C8.49238 8.32639 8.96447 8.52144 9.3131 8.86882C9.66173 9.21619 9.85847 9.68758 9.86023 10.1797V13.1331C9.86023 13.4053 9.9684 13.6665 10.1609 13.859C10.3535 14.0516 10.6146 14.1597 10.8869 14.1597H13.1536C13.289 14.1606 13.4232 14.1347 13.5485 14.0835C13.6738 14.0323 13.7878 13.9568 13.8838 13.8614C13.9799 13.766 14.0561 13.6525 14.1081 13.5275C14.1601 13.4025 14.1869 13.2684 14.1869 13.1331V7.54639C14.1849 7.19644 14.1077 6.85101 13.9605 6.53353C13.8132 6.21605 13.5994 5.93396 13.3336 5.70639L9.50023 2.37306C9.08019 2.01433 8.54594 1.81725 7.99357 1.81725C7.44119 1.81725 6.90694 2.01433 6.4869 2.37306L2.6669 5.71306C2.40053 5.9398 2.1868 6.22188 2.04058 6.53965C1.89435 6.85743 1.81916 7.20326 1.82023 7.55306V13.1331C1.82023 13.2684 1.84701 13.4025 1.89902 13.5275C1.95103 13.6525 2.02725 13.766 2.12329 13.8614C2.21933 13.9568 2.3333 14.0323 2.45863 14.0835C2.58396 14.1347 2.71818 14.1606 2.85357 14.1597H5.12023C5.39137 14.158 5.65079 14.049 5.84189 13.8567C6.03299 13.6643 6.14024 13.4042 6.14023 13.1331V10.2531C6.13509 9.80371 6.28773 9.36678 6.57156 9.01838C6.8554 8.66999 7.25245 8.43218 7.69357 8.34639C7.79523 8.33288 7.89768 8.3262 8.00023 8.32639Z" fill="#5E6278"/>
</g>
<defs>
<clipPath id="clip0_9_3212">
<rect width="16" height="16" fill="white"/>
</clipPath>
</defs>
</svg>
