<svg xmlns="http://www.w3.org/2000/svg" viewBox="0 0 100 125" x="0px" y="0px"><defs><style>.e{fill-rule:evenodd;}</style></defs><path class="e" d="M68.2,67.73c-.44,1.44-1.02,2.83-1.72,4.16l4.55,4.78-3.98,5.19-5.81-3.18c-.55,.52-1.12,1-1.72,1.46-.6,.46-1.22,.89-1.85,1.28l1.56,6.43-6.05,2.5-3.43-5.64c-1.46,.33-2.96,.53-4.47,.58l-1.86,6.34-6.49-.86-.16-6.61c-1.44-.44-2.83-1.02-4.16-1.72l-4.78,4.56-5.19-3.99,3.17-5.8c-.51-.55-.99-1.12-1.45-1.72-.46-.6-.89-1.22-1.28-1.85l-6.43,1.55-2.5-6.04,5.64-3.44c-.33-1.46-.52-2.95-.58-4.46l-6.34-1.87,.86-6.49,6.61-.15c.44-1.44,1.02-2.83,1.72-4.16l-4.56-4.78,3.99-5.19,5.8,3.17c.55-.51,1.12-.99,1.72-1.45,.6-.46,1.22-.89,1.85-1.29l-1.55-6.42,6.04-2.5,3.44,5.63c1.46-.33,2.96-.52,4.46-.58l1.87-6.33,6.49,.85,.15,6.61c1.03,.31,2.03,.69,3,1.14l-1.65,2.01c-1.86-.79-3.83-1.33-5.88-1.6-1.01-.13-2.01-.2-3.01-.2-4.93,0-9.7,1.61-13.69,4.66-4.78,3.67-7.85,8.99-8.64,14.96-.8,5.98,.79,11.91,4.46,16.7,3.67,4.78,8.98,7.86,14.96,8.65,5.98,.79,11.91-.8,16.69-4.47,4.79-3.67,7.86-8.98,8.65-14.96,.13-1.01,.2-2.01,.2-3.01,0-4.89-1.59-9.63-4.59-13.59l1.62-1.97c.1,.12,.2,.24,.29,.36,.46,.6,.89,1.22,1.29,1.85l6.42-1.56,2.51,6.05-5.65,3.43c.34,1.46,.53,2.96,.59,4.47l6.34,1.86-.86,6.49-6.61,.16Zm-7.42-19.34l-.82,1c2.15,3.08,3.4,6.82,3.4,10.84,0,10.53-8.57,19.09-19.09,19.09s-19.09-8.56-19.09-19.09,8.56-19.09,19.09-19.09c2.29,0,4.48,.4,6.51,1.15l.83-1.02c-2.28-.89-4.76-1.38-7.34-1.38-11.22,0-20.34,9.13-20.34,20.34s9.12,20.34,20.34,20.34,20.34-9.12,20.34-20.34c0-4.41-1.41-8.5-3.83-11.84Zm-16.04,3.23c-.11,.13-.2,.28-.26,.45l-4.39,11.15c-.13,.34-.03,.72,.25,.95s.67,.25,.98,.06l10.08-6.48c.15-.09,.28-.21,.39-.34L86.75,14.76c.58-.71,.48-1.76-.23-2.34l-4.47-3.66c-.71-.58-1.76-.48-2.34,.23L44.74,51.61Zm3.56,5.59l1.53-.98c.23-.15,.44-.33,.62-.55L83.28,15.65c.85-1.04,.7-2.57-.34-3.42-.5-.41-1.13-.6-1.78-.54-.65,.06-1.23,.38-1.64,.88L46.69,52.58c-.18,.22-.32,.46-.42,.71l-.67,1.69c-.29,.74-.08,1.58,.54,2.09,.34,.28,.75,.42,1.16,.42,.34,0,.69-.1,.99-.29Z"/><text x="0" y="115" fill="grey" font-size="5px" font-weight="bold" font-family="'Helvetica Neue', Helvetica, Arial-Unicode, Arial, Sans-serif"></text><text x="0" y="120" fill="grey" font-size="5px" font-weight="bold" font-family="'Helvetica Neue', Helvetica, Arial-Unicode, Arial, Sans-serif"></text></svg>