<svg xmlns="http://www.w3.org/2000/svg" xmlns:xlink="http://www.w3.org/1999/xlink" version="1.1" x="0px" y="0px" viewBox="0 0 66 82.5" style="enable-background:new 0 0 66 66;" xml:space="preserve"><path d="M56.25,52.37V5.88c0-2.14-1.74-3.87-3.87-3.87H5.88C3.74,2,2,3.74,2,5.88v46.5c0,2.14,1.74,3.87,3.87,3.87h46.5  C54.51,56.25,56.25,54.51,56.25,52.37z M4.59,52.37V5.88c0-0.71,0.58-1.29,1.29-1.29h46.5c0.71,0,1.29,0.58,1.29,1.29v46.5  c0,0.71-0.58,1.29-1.29,1.29H5.88C5.16,53.66,4.59,53.09,4.59,52.37z"/><path d="M60.12,9.75c-0.71,0-1.29,0.58-1.29,1.29c0,0.71,0.58,1.29,1.29,1.29c0.71,0,1.29,0.58,1.29,1.29v46.5  c0,0.71-0.58,1.29-1.29,1.29h-46.5c-0.71,0-1.29-0.58-1.29-1.29c0-0.71-0.58-1.29-1.29-1.29c-0.71,0-1.29,0.58-1.29,1.29  c0,2.14,1.74,3.87,3.87,3.87h46.5c2.14,0,3.87-1.74,3.87-3.87v-46.5C64,11.49,62.26,9.75,60.12,9.75z"/><path d="M49.79,17.5H8.46c-0.71,0-1.29,0.58-1.29,1.29v31c0,0.71,0.58,1.29,1.29,1.29h41.33c0.71,0,1.29-0.58,1.29-1.29v-31  C51.08,18.08,50.5,17.5,49.79,17.5z M48.5,48.5H9.75V20.08H48.5V48.5z"/><path d="M11.04,14.92c2.14,0,3.87-1.74,3.87-3.87s-1.74-3.87-3.87-3.87c-2.14,0-3.87,1.74-3.87,3.87S8.91,14.92,11.04,14.92z   M11.04,9.75c0.71,0,1.29,0.58,1.29,1.29c0,0.71-0.58,1.29-1.29,1.29s-1.29-0.58-1.29-1.29C9.75,10.33,10.33,9.75,11.04,9.75z"/><path d="M21.38,14.92c2.14,0,3.87-1.74,3.87-3.87s-1.74-3.87-3.87-3.87c-2.14,0-3.87,1.74-3.87,3.87S19.24,14.92,21.38,14.92z   M21.38,9.75c0.71,0,1.29,0.58,1.29,1.29c0,0.71-0.58,1.29-1.29,1.29c-0.71,0-1.29-0.58-1.29-1.29  C20.08,10.33,20.66,9.75,21.38,9.75z"/><path d="M31.71,14.92c2.14,0,3.87-1.74,3.87-3.87s-1.74-3.87-3.87-3.87c-2.14,0-3.87,1.74-3.87,3.87S29.57,14.92,31.71,14.92z   M31.71,9.75c0.71,0,1.29,0.58,1.29,1.29c0,0.71-0.58,1.29-1.29,1.29c-0.71,0-1.29-0.58-1.29-1.29C30.42,10.33,31,9.75,31.71,9.75z"/><path d="M13.63,33h20.66c0.71,0,1.29-0.58,1.29-1.29v-7.75c0-0.71-0.58-1.29-1.29-1.29H13.63c-0.71,0-1.29,0.58-1.29,1.29v7.75  C12.34,32.42,12.91,33,13.63,33z M14.92,25.25H33v5.17H14.92V25.25z"/><path d="M39.46,33h5.17c0.71,0,1.29-0.58,1.29-1.29v-7.75c0-0.71-0.58-1.29-1.29-1.29h-5.17c-0.71,0-1.29,0.58-1.29,1.29v7.75  C38.17,32.42,38.74,33,39.46,33z M40.75,25.25h2.58v5.17h-2.58V25.25z"/><path d="M13.63,38.17h31c0.71,0,1.29-0.58,1.29-1.29c0-0.71-0.58-1.29-1.29-1.29h-31c-0.71,0-1.29,0.58-1.29,1.29  C12.34,37.59,12.91,38.17,13.63,38.17z"/><path d="M13.63,43.33h20.66c0.71,0,1.29-0.58,1.29-1.29c0-0.71-0.58-1.29-1.29-1.29H13.63c-0.71,0-1.29,0.58-1.29,1.29  C12.34,42.75,12.91,43.33,13.63,43.33z"/><text x="0" y="81" fill="grey" font-size="5px" font-weight="bold" font-family="'Helvetica Neue', Helvetica, Arial-Unicode, Arial, Sans-serif"></text><text x="0" y="86" fill="grey" font-size="5px" font-weight="bold" font-family="'Helvetica Neue', Helvetica, Arial-Unicode, Arial, Sans-serif"></text></svg>