<svg width="20" height="13" viewBox="0 0 20 13" fill="none" xmlns="http://www.w3.org/2000/svg">
<path d="M10.0001 10.3334C11.0417 10.3334 11.9272 9.96879 12.6563 9.23962C13.3855 8.51046 13.7501 7.62504 13.7501 6.58337C13.7501 5.54171 13.3855 4.65629 12.6563 3.92712C11.9272 3.19796 11.0417 2.83337 10.0001 2.83337C8.95841 2.83337 8.073 3.19796 7.34383 3.92712C6.61467 4.65629 6.25008 5.54171 6.25008 6.58337C6.25008 7.62504 6.61467 8.51046 7.34383 9.23962C8.073 9.96879 8.95841 10.3334 10.0001 10.3334ZM10.0001 8.83337C9.37508 8.83337 8.84383 8.61462 8.40633 8.17712C7.96883 7.73962 7.75008 7.20837 7.75008 6.58337C7.75008 5.95837 7.96883 5.42712 8.40633 4.98962C8.84383 4.55212 9.37508 4.33337 10.0001 4.33337C10.6251 4.33337 11.1563 4.55212 11.5938 4.98962C12.0313 5.42712 12.2501 5.95837 12.2501 6.58337C12.2501 7.20837 12.0313 7.73962 11.5938 8.17712C11.1563 8.61462 10.6251 8.83337 10.0001 8.83337ZM10.0001 12.8334C8.06953 12.8334 6.30564 12.323 4.70841 11.3021C3.11119 10.2813 1.90286 8.90282 1.08341 7.16671C1.04175 7.09726 1.01397 7.01046 1.00008 6.90629C0.986192 6.80212 0.979248 6.69449 0.979248 6.58337C0.979248 6.47226 0.986192 6.36462 1.00008 6.26046C1.01397 6.15629 1.04175 6.06949 1.08341 6.00004C1.90286 4.26393 3.11119 2.88546 4.70841 1.86462C6.30564 0.843791 8.06953 0.333374 10.0001 0.333374C11.9306 0.333374 13.6945 0.843791 15.2917 1.86462C16.889 2.88546 18.0973 4.26393 18.9167 6.00004C18.9584 6.06949 18.9862 6.15629 19.0001 6.26046C19.014 6.36462 19.0209 6.47226 19.0209 6.58337C19.0209 6.69449 19.014 6.80212 19.0001 6.90629C18.9862 7.01046 18.9584 7.09726 18.9167 7.16671C18.0973 8.90282 16.889 10.2813 15.2917 11.3021C13.6945 12.323 11.9306 12.8334 10.0001 12.8334ZM10.0001 11.1667C11.5695 11.1667 13.0105 10.7535 14.323 9.92712C15.6355 9.10073 16.639 7.98615 17.3334 6.58337C16.639 5.1806 15.6355 4.06601 14.323 3.23962C13.0105 2.41323 11.5695 2.00004 10.0001 2.00004C8.43064 2.00004 6.98967 2.41323 5.67717 3.23962C4.36466 4.06601 3.36119 5.1806 2.66675 6.58337C3.36119 7.98615 4.36466 9.10073 5.67717 9.92712C6.98967 10.7535 8.43064 11.1667 10.0001 11.1667Z" fill="#7E8299"/>
</svg>
